<svg width="35" height="35" viewBox="0 0 35 35" fill="none" xmlns="http://www.w3.org/2000/svg">
<path d="M2.1875 32.5C2.1875 33.8828 3.16504 35 4.375 35H30.625C31.835 35 32.8125 33.8828 32.8125 32.5V10H2.1875V32.5ZM13.125 15.9375C13.125 15.4219 13.4941 15 13.9453 15H21.0547C21.5059 15 21.875 15.4219 21.875 15.9375V16.5625C21.875 17.0781 21.5059 17.5 21.0547 17.5H13.9453C13.4941 17.5 13.125 17.0781 13.125 16.5625V15.9375ZM32.8125 0H2.1875C0.977539 0 0 1.11719 0 2.5V6.25C0 6.9375 0.492187 7.5 1.09375 7.5H33.9062C34.5078 7.5 35 6.9375 35 6.25V2.5C35 1.11719 34.0225 0 32.8125 0Z" fill="#0C3944"/>
</svg>
