<svg width="45" height="40" viewBox="0 0 45 40" fill="none" xmlns="http://www.w3.org/2000/svg">
<path d="M2.77778 37.1429C2.77778 38.7232 4.0191 40 5.55556 40H38.8889C40.4253 40 41.6667 38.7232 41.6667 37.1429V11.4286H2.77778V37.1429ZM16.6667 18.2143C16.6667 17.625 17.1354 17.1429 17.7083 17.1429H26.7361C27.309 17.1429 27.7778 17.625 27.7778 18.2143V18.9286C27.7778 19.5179 27.309 20 26.7361 20H17.7083C17.1354 20 16.6667 19.5179 16.6667 18.9286V18.2143ZM41.6667 0H2.77778C1.24132 0 0 1.27679 0 2.85714V7.14286C0 7.92857 0.625 8.57143 1.38889 8.57143H43.0556C43.8194 8.57143 44.4444 7.92857 44.4444 7.14286V2.85714C44.4444 1.27679 43.2031 0 41.6667 0Z" fill="#0C3944"/>
</svg>
