<svg width="23" height="24" viewBox="0 0 23 24" fill="none" xmlns="http://www.w3.org/2000/svg">
<path d="M10.7978 0C9.94955 0.790404 9.2692 1.74356 8.79732 2.80261C8.32544 3.86167 8.0717 5.00491 8.05125 6.16416C8.03079 7.3234 8.24404 8.47488 8.67827 9.54992C9.11249 10.625 9.7588 11.6015 10.5786 12.4214C11.3985 13.2412 12.375 13.8875 13.4501 14.3217C14.5251 14.756 15.6766 14.9692 16.8358 14.9488C17.9951 14.9283 19.1383 14.6746 20.1974 14.2027C21.2564 13.7308 22.2096 13.0505 23 12.2022C22.6339 18.2285 17.631 23.0012 11.5127 23.0012C5.1537 23.0012 0 17.8474 0 11.4896C0 5.37127 4.77267 0.368368 10.7978 0Z" fill="#0C3944"/>
</svg>
