<svg width="43" height="43" viewBox="0 0 43 43" fill="none" xmlns="http://www.w3.org/2000/svg">
<path d="M21.5 0C9.632 0 0 9.632 0 21.5C0 33.368 9.632 43 21.5 43C33.368 43 43 33.368 43 21.5C43 9.632 33.368 0 21.5 0ZM29.2615 13.631C31.562 13.631 33.411 15.48 33.411 17.7805C33.411 20.081 31.562 21.93 29.2615 21.93C26.961 21.93 25.112 20.081 25.112 17.7805C25.0905 15.48 26.961 13.631 29.2615 13.631ZM16.3615 10.234C19.1565 10.234 21.4355 12.513 21.4355 15.308C21.4355 18.103 19.1565 20.382 16.3615 20.382C13.5665 20.382 11.2875 18.103 11.2875 15.308C11.2875 12.4915 13.545 10.234 16.3615 10.234ZM16.3615 29.8635V37.926C11.2015 36.3135 7.1165 32.336 5.3105 27.262C7.568 24.854 13.201 23.6285 16.3615 23.6285C17.501 23.6285 18.9415 23.8005 20.4465 24.1015C16.9205 25.972 16.3615 28.4445 16.3615 29.8635ZM21.5 38.7C20.9195 38.7 20.3605 38.6785 19.8015 38.614V29.8635C19.8015 26.8105 26.1225 25.284 29.2615 25.284C31.562 25.284 35.5395 26.1225 37.5175 27.7565C35.002 34.142 28.7885 38.7 21.5 38.7Z" fill="#0C3944"/>
</svg>
