<svg width="39" height="39" viewBox="0 0 39 39" fill="none" xmlns="http://www.w3.org/2000/svg">
<path d="M19.5 0C8.736 0 0 8.736 0 19.5C0 30.264 8.736 39 19.5 39C30.264 39 39 30.264 39 19.5C39 8.736 30.264 0 19.5 0ZM26.5395 12.363C28.626 12.363 30.303 14.04 30.303 16.1265C30.303 18.213 28.626 19.89 26.5395 19.89C24.453 19.89 22.776 18.213 22.776 16.1265C22.7565 14.04 24.453 12.363 26.5395 12.363ZM14.8395 9.282C17.3745 9.282 19.4415 11.349 19.4415 13.884C19.4415 16.419 17.3745 18.486 14.8395 18.486C12.3045 18.486 10.2375 16.419 10.2375 13.884C10.2375 11.3295 12.285 9.282 14.8395 9.282ZM14.8395 27.0855V34.398C10.1595 32.9355 6.4545 29.328 4.8165 24.726C6.864 22.542 11.973 21.4305 14.8395 21.4305C15.873 21.4305 17.1795 21.5865 18.5445 21.8595C15.3465 23.556 14.8395 25.7985 14.8395 27.0855ZM19.5 35.1C18.9735 35.1 18.4665 35.0805 17.9595 35.022V27.0855C17.9595 24.3165 23.6925 22.932 26.5395 22.932C28.626 22.932 32.2335 23.6925 34.0275 25.1745C31.746 30.966 26.1105 35.1 19.5 35.1Z" fill="#0C3944"/>
</svg>
